<?xml version="1.0" encoding="UTF-8"?>
<svg version="1.1" xmlns="http://www.w3.org/2000/svg" width="276" height="300">
<path d="M0 0 C91.08 0 182.16 0 276 0 C276 99 276 198 276 300 C184.92 300 93.84 300 0 300 C0 201 0 102 0 0 Z " fill="#FDFEFE" transform="translate(0,0)"/>
<path d="M0 0 C0.64275879 0.21962402 1.28551758 0.43924805 1.94775391 0.66552734 C16.66426632 5.79868756 28.5218599 13.62581804 40 24 C41.11181641 24.98613281 41.11181641 24.98613281 42.24609375 25.9921875 C51.08475385 34.27954285 57.40887109 43.73687927 61.5 55.0625 C63.49075815 60.63279477 63.49075815 60.63279477 67.37109375 64.94140625 C69.90293131 66.1567656 69.90293131 66.1567656 72.48828125 67.02734375 C76.68391992 68.6520934 80.00414628 71.67778232 83 75 C83 75.66 83 76.32 83 77 C83.58910156 77.06703125 84.17820313 77.1340625 84.78515625 77.203125 C90.31334004 79.19210118 93.04200395 87.12472274 95.5625 92.05859375 C100.95093121 104.32033636 100.21462761 116.66099878 96.47265625 129.30859375 C93.63937241 136.4105917 89.46950293 143.90477564 83.71875 149.03515625 C81.7473976 150.91297663 81.7473976 150.91297663 81.6875 153.734375 C82.38192493 160.43557553 83.6972224 165.14023329 87 171 C87 171.99 87 172.98 87 174 C77.90361208 174.77416067 71.29727088 170.50448518 64.140625 165.26953125 C59.0617984 162.25745343 53.80994166 162.81732042 48.1875 163.81640625 C43.17278083 165.67848947 40.16231339 169.30992457 36.64453125 173.18359375 C32.86134757 177.21265642 28.65734828 180.0723214 24 183 C23.12214844 183.58394531 22.24429688 184.16789063 21.33984375 184.76953125 C0.43111398 197.97050369 -24.70576522 201.16168797 -48.7578125 197.4375 C-54.17544597 196.43924686 -54.17544597 196.43924686 -58.96484375 198.46875 C-59.61582031 199.1390625 -60.26679687 199.809375 -60.9375 200.5 C-69.43973473 208.50461229 -81.61735378 216.10452063 -93.5 216.1875 C-95.00055125 216.14004281 -96.50099109 216.08293697 -98 216 C-98.64453125 214.24609375 -98.64453125 214.24609375 -99 212 C-98.07421875 210.03515625 -98.07421875 210.03515625 -96.6875 208.0625 C-91.58359413 200.41371032 -90.26725173 192.33274663 -90.33984375 183.17578125 C-91.5630339 177.29144048 -96.28433404 175.19114929 -101 172 C-109.39004898 164.79746565 -115.24880385 156.31969315 -121 147 C-121.79083984 145.74316406 -121.79083984 145.74316406 -122.59765625 144.4609375 C-134.46937645 124.4932124 -137.0916077 94.46004184 -131.4375 72.1875 C-127.50415498 59.36617536 -122.00035327 47.79510239 -114 37 C-113.33871094 36.10410156 -112.67742187 35.20820312 -111.99609375 34.28515625 C-107.80780533 28.83464392 -103.33971549 24.30907187 -98 20 C-97.21625 19.34128906 -96.4325 18.68257812 -95.625 18.00390625 C-86.18811476 10.20373079 -76.3817938 4.80234562 -64.88525391 0.68164062 C-63.17623296 0.06371956 -61.48339528 -0.59851392 -59.79296875 -1.265625 C-41.92990004 -7.28355088 -17.67087864 -6.11757106 0 0 Z " fill="#2895D3" transform="translate(161,49)"/>
<path d="M0 0 C1.39836594 -0.02125443 1.39836594 -0.02125443 2.82498169 -0.04293823 C3.84067734 -0.0379834 4.85637299 -0.03302856 5.90284729 -0.02792358 C6.97804626 -0.03814545 8.05324524 -0.04836731 9.161026 -0.05889893 C12.7191538 -0.08672465 16.27650832 -0.08477527 19.83473206 -0.08016968 C22.30568735 -0.08794157 24.77663997 -0.09661049 27.24758911 -0.10614014 C32.42849893 -0.12107165 37.60913619 -0.12047694 42.79005432 -0.10995483 C49.43294308 -0.09836237 56.07471714 -0.13222956 62.71742153 -0.17864418 C67.82094863 -0.2080923 72.92420642 -0.20986604 78.02780342 -0.20362473 C80.47705863 -0.20465244 82.92632866 -0.21515227 85.37550163 -0.23524857 C88.79941855 -0.25989485 92.22115343 -0.24644873 95.64503479 -0.22323608 C96.65870621 -0.23852356 97.67237762 -0.25381104 98.71676636 -0.26956177 C103.37498844 -0.19967514 105.65315454 0.01349995 109.47151184 2.84262085 C112.50499303 7.44654621 111.9937654 12.81511487 111.90626526 18.12637329 C111.90699539 19.28792435 111.90772552 20.4494754 111.90847778 21.64622498 C111.90500023 25.47748855 111.8661276 29.30752966 111.82691956 33.13858032 C111.81759202 35.79803526 111.81022967 38.45742289 111.80548096 41.11688232 C111.78996465 47.39614335 111.74896692 53.67496708 111.69873351 59.95403588 C111.64277048 67.10512576 111.61533618 74.25623696 111.59025633 81.40749145 C111.53804859 96.11234848 111.4501499 110.81686302 111.33863831 125.52139282 C110.67863831 125.52139282 110.01863831 125.52139282 109.33863831 125.52139282 C109.04988831 126.16076782 108.76113831 126.80014282 108.46363831 127.45889282 C107.33863831 129.52139282 107.33863831 129.52139282 105.33863831 130.52139282 C103.89304336 130.62378375 102.44289439 130.66514134 100.99371338 130.67529297 C100.08104706 130.68389343 99.16838074 130.6924939 98.22805786 130.70135498 C97.22387314 130.70561493 96.21968842 130.70987488 95.18507385 130.71426392 C94.12967407 130.72244141 93.07427429 130.7306189 91.9868927 130.73904419 C88.48305332 130.76392262 84.97925449 130.78041966 81.47535706 130.79483032 C80.28088266 130.800154 79.08640827 130.80547768 77.85573769 130.81096268 C71.53469611 130.83770366 65.21367435 130.8570764 58.89259338 130.87149048 C52.3552233 130.8881493 45.81835625 130.93293544 39.28117657 130.98386192 C34.26177371 131.0174737 29.24249119 131.02906126 24.22298622 131.03471756 C21.81278955 131.04144575 19.40260122 131.05670816 16.99251366 131.08060837 C13.62138409 131.11213397 10.25162388 131.11231511 6.88038635 131.10488892 C5.88227432 131.12129425 4.88416229 131.13769958 3.85580444 131.15460205 C-0.44292537 131.11578118 -3.015097 130.89653387 -6.78077698 128.71064758 C-9.6378672 123.86535212 -9.35086974 119.44036764 -9.29246521 113.90982056 C-9.29962051 112.73533356 -9.30677582 111.56084656 -9.31414795 110.35076904 C-9.32814216 107.13772123 -9.3197449 103.92571875 -9.30005765 100.71272922 C-9.28364815 97.34735094 -9.29248704 93.98202439 -9.2975769 90.61662292 C-9.30209472 84.96666197 -9.28624631 79.31703244 -9.25828552 73.66714478 C-9.22621909 67.13734718 -9.22625609 60.6081467 -9.24350029 54.07830662 C-9.25936843 47.79220566 -9.25263113 41.5063234 -9.23556328 35.22023201 C-9.22869515 32.5468265 -9.22972258 29.87359643 -9.23710823 27.20019341 C-9.24254595 23.46760683 -9.22222979 19.73604091 -9.19480896 16.00357056 C-9.20133484 14.89436752 -9.20786072 13.78516449 -9.21458435 12.64234924 C-9.20185989 11.62596375 -9.18913544 10.60957825 -9.17602539 9.56239319 C-9.17321847 8.68027884 -9.17041155 7.7981645 -9.16751957 6.88931942 C-8.09558848 1.87457152 -4.88163767 0.02479398 0 0 Z " fill="#FAFDFD" transform="translate(76.66136169433594,75.47860717773438)"/>
<path d="M0 0 C12.18683113 -0.5136891 24.68510062 4.03445672 34.23046875 11.625 C35.625 12.94921875 35.625 12.94921875 37.4375 15.19921875 C37.4375 15.85921875 37.4375 16.51921875 37.4375 17.19921875 C38.02660156 17.26625 38.61570312 17.33328125 39.22265625 17.40234375 C44.75084004 19.39131993 47.47950395 27.32394149 50 32.2578125 C55.38843121 44.51955511 54.65212761 56.86021753 50.91015625 69.5078125 C48.07687241 76.60981045 43.90700293 84.10399439 38.15625 89.234375 C36.1848976 91.11219538 36.1848976 91.11219538 36.125 93.93359375 C36.81942493 100.63479428 38.1347224 105.33945204 41.4375 111.19921875 C41.4375 112.18921875 41.4375 113.17921875 41.4375 114.19921875 C32.34111208 114.97337942 25.73477088 110.70370393 18.578125 105.46875 C14.05844009 102.78827993 10.3450257 103.171836 5.3125 104.13671875 C-4.03126035 105.89595542 -12.56544976 103.99830105 -21.5625 101.19921875 C-21.5625 100.53921875 -21.5625 99.87921875 -21.5625 99.19921875 C-22.8825 99.19921875 -24.2025 99.19921875 -25.5625 99.19921875 C-24.44244369 95.83904982 -23.19038203 94.50856962 -20.5625 92.19921875 C-19.9025 92.19921875 -19.2425 92.19921875 -18.5625 92.19921875 C-18.5625 62.82921875 -18.5625 33.45921875 -18.5625 3.19921875 C-12.07508521 1.34567167 -6.62549976 0.51509221 0 0 Z " fill="#7DBA55" transform="translate(206.5625,108.80078125)"/>
<path d="M0 0 C15.47826516 10.45904512 15.47826516 10.45904512 17.15625 18.45703125 C18.29279564 27.24103126 18.723887 34.40035782 13.28125 41.83203125 C11.93090273 43.39533652 10.55951862 44.94105029 9.15625 46.45703125 C8.49625 47.44703125 7.83625 48.43703125 7.15625 49.45703125 C6.49625 49.45703125 5.83625 49.45703125 5.15625 49.45703125 C5.300625 50.75640625 5.445 52.05578125 5.59375 53.39453125 C5.67496094 54.12542969 5.75617188 54.85632813 5.83984375 55.609375 C5.97511614 57.46843354 5.97511614 57.46843354 7.15625 58.45703125 C7.19688832 60.1232024 7.198971 61.7909122 7.15625 63.45703125 C2.8385042 62.94906116 -0.87677114 62.26020346 -4.84375 60.45703125 C-4.84375 59.79703125 -4.84375 59.13703125 -4.84375 58.45703125 C-5.44324463 58.44768555 -6.04273926 58.43833984 -6.66040039 58.42871094 C-9.40981267 58.37460849 -12.15759552 58.29104328 -14.90625 58.20703125 C-15.84919922 58.19285156 -16.79214844 58.17867187 -17.76367188 58.1640625 C-19.15102539 58.11572266 -19.15102539 58.11572266 -20.56640625 58.06640625 C-21.40953369 58.04545898 -22.25266113 58.02451172 -23.12133789 58.00292969 C-25.84375 57.45703125 -25.84375 57.45703125 -32.84375 53.45703125 C-32.84375 35.63703125 -32.84375 17.81703125 -32.84375 -0.54296875 C-9.5557978 -5.20055919 -9.5557978 -5.20055919 0 0 Z " fill="#29A4D6" transform="translate(220.84375,124.54296875)"/>
<path d="M0 0 C1.13457642 -0.00637985 2.26915283 -0.0127597 3.43811035 -0.01933289 C4.66831909 -0.02044571 5.89852783 -0.02155853 7.16601562 -0.02270508 C8.42361694 -0.02603348 9.68121826 -0.02936188 10.97692871 -0.03279114 C13.64009126 -0.03786145 16.30315179 -0.04063108 18.96630859 -0.04003906 C22.38295648 -0.03993733 25.79939709 -0.05360164 29.21599579 -0.07081127 C32.47016146 -0.08458438 35.72432474 -0.08401938 38.97851562 -0.08520508 C40.82382874 -0.09598335 40.82382874 -0.09598335 42.7064209 -0.10697937 C44.40828552 -0.10236443 44.40828552 -0.10236443 46.14453125 -0.09765625 C47.14665649 -0.09908127 48.14878174 -0.10050629 49.18127441 -0.10197449 C51.57226562 0.14526367 51.57226562 0.14526367 53.57226562 2.14526367 C53.83789062 5.11401367 53.83789062 5.11401367 53.82226562 8.64526367 C53.83 10.39323242 53.83 10.39323242 53.83789062 12.17651367 C53.57226562 15.14526367 53.57226562 15.14526367 51.57226562 17.14526367 C49.18127441 17.39923096 49.18127441 17.39923096 46.14453125 17.40405273 C45.00995483 17.41035706 43.87537842 17.41666138 42.7064209 17.42315674 C40.86110779 17.41708405 40.86110779 17.41708405 38.97851562 17.41088867 C37.72091431 17.41280212 36.46331299 17.41471558 35.16760254 17.41668701 C32.50433687 17.41805016 29.84143633 17.41534373 27.17822266 17.40600586 C23.76155168 17.39461119 20.3451949 17.40117115 16.92853546 17.41315079 C13.67435083 17.42210821 10.42020435 17.41583995 7.16601562 17.41088867 C5.93580688 17.41493713 4.70559814 17.4189856 3.43811035 17.42315674 C1.73624573 17.41370026 1.73624573 17.41370026 0 17.40405273 C-1.00212524 17.40246155 -2.00425049 17.40087036 -3.03674316 17.39923096 C-5.42773438 17.14526367 -5.42773438 17.14526367 -7.42773438 15.14526367 C-7.62304688 11.88745117 -7.62304688 11.88745117 -7.55273438 8.02026367 C-7.5346875 6.73893555 -7.51664062 5.45760742 -7.49804688 4.13745117 C-7.47484375 3.1500293 -7.45164062 2.16260742 -7.42773438 1.14526367 C-4.82549173 -0.15585765 -2.91401711 0.01108409 0 0 Z " fill="#2A96D4" transform="translate(119.427734375,168.854736328125)"/>
<path d="M0 0 C0.33 0 0.66 0 1 0 C1.90271424 16.34915794 1.90271424 16.34915794 -2.61328125 23.49609375 C-4 25 -4 25 -7 26 C-8.20882096 28.00016466 -8.20882096 28.00016466 -9 30 C-9.66 30 -10.32 30 -11 30 C-10.690625 31.010625 -10.38125 32.02125 -10.0625 33.0625 C-9.02535082 36.67791439 -8.48375795 40.26815292 -8 44 C-7.68033861 45.66934283 -7.35268934 47.3373217 -7 49 C-8.35307462 49.0828413 -9.70772411 49.14000368 -11.0625 49.1875 C-11.81660156 49.22230469 -12.57070312 49.25710937 -13.34765625 49.29296875 C-16.26043647 48.97123309 -18.41145042 47.91515469 -21.05297852 46.70581055 C-24.58745835 45.42453391 -28.21099281 45.42426328 -31.9375 45.3125 C-32.71673828 45.27833984 -33.49597656 45.24417969 -34.29882812 45.20898438 C-36.19874393 45.1273929 -38.09934403 45.06200115 -40 45 C-39.67 45.99 -39.34 46.98 -39 48 C-39.70703125 51.03125 -39.70703125 51.03125 -40.8125 54.5 C-41.16957031 55.6446875 -41.52664062 56.789375 -41.89453125 57.96875 C-43 61 -43 61 -45 64 C-42.59458071 65.20270964 -40.89633409 65.20316663 -38.2109375 65.31640625 C-37.26992187 65.35830078 -36.32890625 65.40019531 -35.359375 65.44335938 C-34.37453125 65.48267578 -33.3896875 65.52199219 -32.375 65.5625 C-31.38242188 65.60568359 -30.38984375 65.64886719 -29.3671875 65.69335938 C-26.91160162 65.79961069 -24.45591297 65.90164964 -22 66 C-22 66.33 -22 66.66 -22 67 C-23.60341555 67.33692785 -25.20776555 67.66941093 -26.8125 68 C-27.70582031 68.185625 -28.59914062 68.37125 -29.51953125 68.5625 C-37.23767677 69.92381071 -45.63758836 67.29052807 -53 65 C-53 64.34 -53 63.68 -53 63 C-54.32 63 -55.64 63 -57 63 C-55.87994369 59.63983107 -54.62788203 58.30935087 -52 56 C-51.34 56 -50.68 56 -50 56 C-50 48.41 -50 40.82 -50 33 C-47.69 33.99 -45.38 34.98 -43 36 C-40.55939795 36.43781046 -40.55939795 36.43781046 -38.265625 36.40625 C-37.44449219 36.42816406 -36.62335938 36.45007813 -35.77734375 36.47265625 C-34.07682474 36.49105445 -32.37630385 36.50928054 -30.67578125 36.52734375 C-29.45181641 36.56021484 -29.45181641 36.56021484 -28.203125 36.59375 C-27.09952637 36.60438477 -27.09952637 36.60438477 -25.97363281 36.61523438 C-23.47419887 37.1025065 -22.69177615 38.15429249 -21 40 C-18.27976977 41.00503551 -18.27976977 41.00503551 -15.3125 41.6875 C-13.82169922 42.06455078 -13.82169922 42.06455078 -12.30078125 42.44921875 C-11.54152344 42.63097656 -10.78226563 42.81273437 -10 43 C-10.33 42.175 -10.66 41.35 -11 40.5 C-12.20008461 36.29970387 -12.35705363 33.35605434 -12 29 C-10.73828125 27.55859375 -10.73828125 27.55859375 -9 26 C-1.19500916 17.55724727 0.24081932 11.15294466 0 0 Z " fill="#57994B" transform="translate(238,145)"/>
<path d="M0 0 C2.1875 0.3125 2.1875 0.3125 4 1 C2.34832443 4.5786304 0.21713508 7.74820188 -2 11 C-1.34 11.33 -0.68 11.66 0 12 C0.08090971 13.62418745 0.13914995 15.24951745 0.1875 16.875 C0.23970703 18.23238281 0.23970703 18.23238281 0.29296875 19.6171875 C0.19628906 20.40351562 0.09960938 21.18984375 0 22 C-3.62346069 24.41564046 -6.31603982 24.29781669 -10.5 24.25 C-11.17675781 24.25773437 -11.85351562 24.26546875 -12.55078125 24.2734375 C-16.24919257 24.25884811 -17.84603337 24.10264442 -21 22 C-21.29296875 19.8359375 -21.29296875 19.8359375 -21.1875 17.375 C-21.16042969 16.55773437 -21.13335937 15.74046875 -21.10546875 14.8984375 C-21.07066406 14.27195312 -21.03585938 13.64546875 -21 13 C-20.01 13 -19.02 13 -18 13 C-18 12.34 -18 11.68 -18 11 C-18.66 11 -19.32 11 -20 11 C-19.67 9.35 -19.34 7.7 -19 6 C-17.02 6 -15.04 6 -13 6 C-13 6.66 -13 7.32 -13 8 C-12.34 8 -11.68 8 -11 8 C-11 8.66 -11 9.32 -11 10 C-9.72799029 8.89718873 -8.45744147 7.79269231 -7.1875 6.6875 C-6.47980469 6.07261719 -5.77210937 5.45773438 -5.04296875 4.82421875 C-3.01372473 3.06940722 -3.01372473 3.06940722 -1.375 1.25 C-0.92125 0.8375 -0.4675 0.425 0 0 Z " fill="#E2FCFE" transform="translate(103,97)"/>
<path d="M0 0 C1.12535156 0.00580078 1.12535156 0.00580078 2.2734375 0.01171875 C3.02367188 0.00785156 3.77390625 0.00398437 4.546875 0 C10.14682697 0.01010822 10.14682697 0.01010822 11.2734375 1.13671875 C11.34668918 3.99939442 11.36581955 6.83743775 11.3359375 9.69921875 C11.33142578 10.50552734 11.32691406 11.31183594 11.32226562 12.14257812 C11.31044268 14.14065631 11.29250664 16.13869658 11.2734375 18.13671875 C8.22361492 19.66163004 5.05221211 19.28033309 1.7109375 19.26171875 C1.01291016 19.26558594 0.31488281 19.26945312 -0.40429688 19.2734375 C-5.59992256 19.26335869 -5.59992256 19.26335869 -6.7265625 18.13671875 C-6.82643225 15.29336827 -6.86534131 12.47974712 -6.8515625 9.63671875 C-6.85542969 8.83878906 -6.85929687 8.04085937 -6.86328125 7.21875 C-6.8510463 0.01236651 -6.8510463 0.01236651 0 0 Z " fill="#4197CE" transform="translate(89.7265625,167.86328125)"/>
<path d="M0 0 C5.94 0 11.88 0 18 0 C18 5.94 18 11.88 18 18 C12.06 18 6.12 18 0 18 C0 12.06 0 6.12 0 0 Z " fill="#3396CB" transform="translate(83,136)"/>
<path d="M0 0 C1.13457642 -0.00637985 2.26915283 -0.0127597 3.43811035 -0.01933289 C4.66831909 -0.02044571 5.89852783 -0.02155853 7.16601562 -0.02270508 C8.42361694 -0.02603348 9.68121826 -0.02936188 10.97692871 -0.03279114 C13.64009126 -0.03786145 16.30315179 -0.04063108 18.96630859 -0.04003906 C22.38295648 -0.03993733 25.79939709 -0.05360164 29.21599579 -0.07081127 C32.47016146 -0.08458438 35.72432474 -0.08401938 38.97851562 -0.08520508 C40.82382874 -0.09598335 40.82382874 -0.09598335 42.7064209 -0.10697937 C44.40828552 -0.10236443 44.40828552 -0.10236443 46.14453125 -0.09765625 C47.14665649 -0.09908127 48.14878174 -0.10050629 49.18127441 -0.10197449 C51.57226562 0.14526367 51.57226562 0.14526367 53.57226562 2.14526367 C53.83789062 5.11401367 53.83789062 5.11401367 53.82226562 8.64526367 C53.83 10.39323242 53.83 10.39323242 53.83789062 12.17651367 C53.57226562 15.14526367 53.57226562 15.14526367 51.57226562 17.14526367 C49.18127441 17.39923096 49.18127441 17.39923096 46.14453125 17.40405273 C45.00995483 17.41035706 43.87537842 17.41666138 42.7064209 17.42315674 C40.86110779 17.41708405 40.86110779 17.41708405 38.97851562 17.41088867 C37.72091431 17.41280212 36.46331299 17.41471558 35.16760254 17.41668701 C32.50433687 17.41805016 29.84143633 17.41534373 27.17822266 17.40600586 C23.76155168 17.39461119 20.3451949 17.40117115 16.92853546 17.41315079 C13.67435083 17.42210821 10.42020435 17.41583995 7.16601562 17.41088867 C5.93580688 17.41493713 4.70559814 17.4189856 3.43811035 17.42315674 C1.73624573 17.41370026 1.73624573 17.41370026 0 17.40405273 C-1.00212524 17.40246155 -2.00425049 17.40087036 -3.03674316 17.39923096 C-5.42773438 17.14526367 -5.42773438 17.14526367 -7.42773438 15.14526367 C-7.62304688 11.88745117 -7.62304688 11.88745117 -7.55273438 8.02026367 C-7.5346875 6.73893555 -7.51664062 5.45760742 -7.49804688 4.13745117 C-7.47484375 3.1500293 -7.45164062 2.16260742 -7.42773438 1.14526367 C-4.82549173 -0.15585765 -2.91401711 0.01108409 0 0 Z M-5.24894714 3.94317627 C-6.92500867 7.07421967 -6.69094904 9.65766942 -6.42773438 13.14526367 C-4.46777672 15.10522132 -0.79520139 14.55661503 1.88867188 14.69995117 C3.02218834 14.76301956 3.02218834 14.76301956 4.17860413 14.82736206 C12.44416163 15.24790311 20.70561595 15.29661378 28.98022461 15.27563477 C31.55978982 15.27015745 34.13918925 15.27568194 36.71875 15.28198242 C38.36653684 15.28132344 40.01432358 15.28004603 41.66210938 15.27807617 C42.81343605 15.28111252 42.81343605 15.28111252 43.98802185 15.28421021 C47.90858416 15.34546629 47.90858416 15.34546629 51.57226562 14.14526367 C51.57226562 10.18526367 51.57226562 6.22526367 51.57226562 2.14526367 C43.79439013 2.04654521 36.01687754 1.97386486 28.23852539 1.92553711 C25.59132538 1.90539519 22.94416999 1.87808012 20.29711914 1.84350586 C16.49679568 1.79510316 12.69705932 1.77232037 8.89648438 1.75463867 C7.70891037 1.73399353 6.52133636 1.71334839 5.29777527 1.69207764 C4.1968605 1.69177551 3.09594574 1.69147339 1.96166992 1.69116211 C0.99126266 1.68227966 0.02085541 1.67339722 -0.97895813 1.66424561 C-3.55026966 1.93526957 -3.55026966 1.93526957 -5.24894714 3.94317627 Z " fill="#4497C5" transform="translate(119.427734375,168.854736328125)"/>
<path d="M0 0 C19.47 0 38.94 0 59 0 C59.495 1.98 59.495 1.98 60 4 C59 5 59 5 56.63987732 5.12025452 C55.59396927 5.11803391 54.54806122 5.11581329 53.47045898 5.11352539 C52.28931015 5.11344986 51.10816132 5.11337433 49.89122009 5.11329651 C48.6058284 5.10813522 47.32043671 5.10297394 45.99609375 5.09765625 C44.68794205 5.0962413 43.37979034 5.09482635 42.03199768 5.09336853 C38.54837141 5.0895441 35.06478661 5.07971446 31.58117676 5.06866455 C28.02873292 5.05844882 24.47628241 5.05387056 20.92382812 5.04882812 C13.94920168 5.03809212 6.97460283 5.0210166 0 5 C0 3.35 0 1.7 0 0 Z " fill="#34A4D8" transform="translate(113,136)"/>
<path d="M0 0 C0.85225159 -0.00571014 1.70450317 -0.01142029 2.58258057 -0.01730347 C3.51457275 -0.01842133 4.44656494 -0.01953918 5.40679932 -0.02069092 C6.39085754 -0.02565582 7.37491577 -0.03062073 8.38879395 -0.03573608 C11.65033666 -0.05036283 14.91183072 -0.05716102 18.17340088 -0.06268311 C20.439209 -0.06843468 22.70501711 -0.07419241 24.9708252 -0.07995605 C29.72552721 -0.09046788 34.48021231 -0.09630918 39.23492432 -0.09979248 C45.32241331 -0.10527378 51.40967824 -0.12929344 57.49709702 -0.15776443 C62.17944996 -0.17640543 66.86174913 -0.18159723 71.54413605 -0.18312836 C73.78797885 -0.18615272 76.03182076 -0.19417394 78.27562714 -0.20731354 C81.41848183 -0.2244022 84.56079178 -0.22248655 87.70367432 -0.21600342 C88.62756958 -0.2252182 89.55146484 -0.23443298 90.50335693 -0.243927 C96.03982283 -0.20822078 99.87876857 0.59766743 104.81402588 3.14044189 C104.48402588 4.13044189 104.15402588 5.12044189 103.81402588 6.14044189 C102.82402588 5.15044189 102.82402588 5.15044189 101.81402588 4.14044189 C99.79184234 3.82706664 99.79184234 3.82706664 97.43545532 3.86196899 C96.5155632 3.85080551 95.59567108 3.83964203 94.64790344 3.82814026 C93.63586349 3.82598007 92.62382355 3.82381989 91.58111572 3.82159424 C90.51768448 3.81154861 89.45425323 3.80150299 88.3585968 3.79115295 C84.83072468 3.76017174 81.30292895 3.74324433 77.77496338 3.72637939 C75.33400814 3.70767977 72.89305943 3.68810728 70.45211792 3.66769409 C64.01759693 3.6162396 57.58305495 3.57668525 51.1484375 3.53955078 C44.58639274 3.49959444 38.02443628 3.44846403 31.46246338 3.39825439 C18.57971391 3.3013375 5.6969139 3.21660413 -7.18597412 3.14044189 C-7.18597412 2.48044189 -7.18597412 1.82044189 -7.18597412 1.14044189 C-4.44382908 0.22639355 -2.82357354 0.01134524 0 0 Z " fill="#57BDDB" transform="translate(81.18597412109375,72.85955810546875)"/>
<path d="M0 0 C0.28875 0.598125 0.5775 1.19625 0.875 1.8125 C2.04742026 4.19327792 2.04742026 4.19327792 4 7 C4.22705078 9.36010742 4.22705078 9.36010742 4.1953125 12.10546875 C4.18564453 13.57983398 4.18564453 13.57983398 4.17578125 15.08398438 C4.15902344 16.10814453 4.14226562 17.13230469 4.125 18.1875 C4.11597656 19.22326172 4.10695312 20.25902344 4.09765625 21.32617188 C4.0740786 23.88434685 4.0411703 26.44205748 4 29 C5.56552935 29.18842406 7.13217502 29.36758429 8.69921875 29.54296875 C9.57151123 29.64375732 10.44380371 29.7445459 11.3425293 29.84838867 C13.96872502 29.99821573 16.22958806 29.76991737 18.8125 29.3125 C22.33047726 28.81349613 22.79681967 28.87975041 26.0625 30.8125 C28 33 28 33 28 35 C29.98 35 31.96 35 34 35 C34 31.37 34 27.74 34 24 C34.33 24 34.66 24 35 24 C35.22786458 26.05078125 35.45572917 28.1015625 35.68359375 30.15234375 C35.81886614 32.01140229 35.81886614 32.01140229 37 33 C37.04063832 34.66617115 37.042721 36.33388095 37 38 C32.6822542 37.49202991 28.96697886 36.80317221 25 35 C25 34.34 25 33.68 25 33 C24.39526855 32.98541748 23.79053711 32.97083496 23.16748047 32.95581055 C20.40270735 32.88090812 17.63908643 32.78438927 14.875 32.6875 C13.92367187 32.66494141 12.97234375 32.64238281 11.9921875 32.61914062 C6.60461174 32.41336516 2.69101893 31.94570717 -2 29 C-2.05794812 24.72922344 -2.09357874 20.45854764 -2.125 16.1875 C-2.14175781 14.97255859 -2.15851563 13.75761719 -2.17578125 12.50585938 C-2.18222656 11.34248047 -2.18867188 10.17910156 -2.1953125 8.98046875 C-2.20578613 7.90692139 -2.21625977 6.83337402 -2.22705078 5.72729492 C-2 3 -2 3 0 0 Z " fill="#2175BD" transform="translate(191,150)"/>
<path d="M0 0 C19.47 0 38.94 0 59 0 C59 1.32 59 2.64 59 4 C39.53 4 20.06 4 0 4 C0 2.68 0 1.36 0 0 Z " fill="#3CAFD8" transform="translate(113,102)"/>
<path d="M0 0 C2.31 0.33 4.62 0.66 7 1 C7 8.26 7 15.52 7 23 C8.65 23.33 10.3 23.66 12 24 C11.67 24.66 11.34 25.32 11 26 C10.13375 25.690625 10.13375 25.690625 9.25 25.375 C6.44563145 24.90760524 5.34613181 25.46287916 3 27 C1.68638302 29.62723396 1.78746091 31.72610561 1.68359375 34.6640625 C1.64169922 35.78554687 1.59980469 36.90703125 1.55664062 38.0625 C1.49766602 39.8259375 1.49766602 39.8259375 1.4375 41.625 C1.39431641 42.80835938 1.35113281 43.99171875 1.30664062 45.2109375 C1.20032574 48.14050328 1.09829358 51.07015588 1 54 C0.67 54 0.34 54 0 54 C0 36.18 0 18.36 0 0 Z " fill="#3296C6" transform="translate(188,124)"/>
<path d="M0 0 C0.66 0.33 1.32 0.66 2 1 C1.81662205 9.76880012 0.30120042 17.43164428 -5.88671875 24.00390625 C-7.12251237 25.16449945 -8.36544148 26.31756776 -9.6171875 27.4609375 C-11.28001804 29.02712087 -11.28001804 29.02712087 -11.4375 31.9375 C-11.293125 32.618125 -11.14875 33.29875 -11 34 C-14.00630866 29.49053701 -16.00897476 25.49330704 -15 20 C-13.64453125 18.70703125 -13.64453125 18.70703125 -11.875 17.375 C-7.37766361 13.96322757 -5.55740134 9.66616624 -3.26171875 4.609375 C-2 2 -2 2 0 0 Z " fill="#6EAA4F" transform="translate(242,155)"/>
<path d="M0 0 C12.21 0 24.42 0 37 0 C36.67 1.65 36.34 3.3 36 5 C24.12 5 12.24 5 0 5 C0 3.35 0 1.7 0 0 Z " fill="#4EB5DA" transform="translate(113,116)"/>
<path d="M0 0 C0.99 0.33 1.98 0.66 3 1 C3.6875 3.0625 3.6875 3.0625 4 5 C4.66 5 5.32 5 6 5 C5.835 5.66 5.67 6.32 5.5 7 C4.88576698 10.68539813 4.93135211 14.27928454 5 18 C5.08207619 22.44852959 5.08701791 26.65192835 4 31 C4.62003906 30.7834375 5.24007812 30.566875 5.87890625 30.34375 C15.0548422 27.45873957 26.02815517 25.71875846 35 30 C33.76368629 24.96643704 32.4512573 19.97573932 31 15 C34.15886991 16.57943496 34.82401115 19.75636166 36.125 22.875 C36.40214844 23.51308594 36.67929688 24.15117188 36.96484375 24.80859375 C38.19159198 27.70323613 39 29.8245104 39 33 C38.40574219 32.855625 37.81148437 32.71125 37.19921875 32.5625 C27.69588571 30.43422635 18.60680441 30.60546388 9 32 C8.505 32.495 8.505 32.495 8 33 C6.00041636 33.04080783 3.99954746 33.04254356 2 33 C1.97494385 32.10692139 1.9498877 31.21384277 1.92407227 30.29370117 C1.82889814 26.97814546 1.72966717 23.66276271 1.62768555 20.34741211 C1.58439207 18.91288997 1.54271301 17.47831816 1.50268555 16.04370117 C1.44484733 13.9808048 1.38119247 11.91815717 1.31640625 9.85546875 C1.26141968 7.99378052 1.26141968 7.99378052 1.20532227 6.09448242 C1.12855879 2.96446653 1.12855879 2.96446653 0 0 Z " fill="#53C2D3" transform="translate(186,79)"/>
<path d="M0 0 C34.32 0 68.64 0 104 0 C100.36120778 1.81939611 99.3856871 2.24855527 95.63378906 2.21118164 C94.77899963 2.20780289 93.92421021 2.20442413 93.04351807 2.20094299 C92.12681335 2.18748337 91.21010864 2.17402374 90.265625 2.16015625 C88.8376358 2.1523539 88.8376358 2.1523539 87.38079834 2.14439392 C84.33704326 2.12659409 81.29362578 2.09545738 78.25 2.0625 C75.22068837 2.0347723 72.19142947 2.0100312 69.16204834 1.99131775 C67.27874349 1.97918372 65.39546286 1.96170472 63.51226807 1.93800354 C59.50047217 1.90779746 55.64462613 1.98542792 51.67089844 2.56420898 C48.22743371 2.97300019 46.30876119 2.72616782 43 2 C39.95505898 1.87562809 36.91381092 1.93116769 33.8671875 1.97265625 C32.07422062 1.98529471 30.28125178 1.99765624 28.48828125 2.00976562 C25.67262589 2.03464587 22.85707351 2.06271161 20.04150391 2.09594727 C17.31672495 2.12608548 14.59207955 2.14389712 11.8671875 2.16015625 C10.60151443 2.18034569 10.60151443 2.18034569 9.31027222 2.20094299 C3.33998624 2.22665749 3.33998624 2.22665749 0 0 Z " fill="#227BB3" transform="translate(74,207)"/>
<path d="M0 0 C10.23 0 20.46 0 31 0 C31.33 1.32 31.66 2.64 32 4 C31 5 31 5 28.04077148 5.11352539 C26.74727783 5.10828857 25.45378418 5.10305176 24.12109375 5.09765625 C23.09110008 5.09553383 23.09110008 5.09553383 22.04029846 5.09336853 C19.83932199 5.08775479 17.63844591 5.07520007 15.4375 5.0625 C13.94856917 5.05748676 12.45963676 5.05292355 10.97070312 5.04882812 C7.31376925 5.03778093 3.65689442 5.02050713 0 5 C0 3.35 0 1.7 0 0 Z " fill="#299CD4" transform="translate(113,150)"/>
<path d="M0 0 C3.96 0 7.92 0 12 0 C12 3.96 12 7.92 12 12 C8.04 12 4.08 12 0 12 C0 8.04 0 4.08 0 0 Z " fill="#FCFEFE" transform="translate(86,139)"/>
<path d="M0 0 C0.33 0.99 0.66 1.98 1 3 C0.67 3.33 0.34 3.66 0 4 C-0.09789295 5.49195393 -0.12631787 6.98852645 -0.12698364 8.48368835 C-0.12980347 9.45243393 -0.13262329 10.4211795 -0.13552856 11.41928101 C-0.13350433 12.49094513 -0.1314801 13.56260925 -0.12939453 14.66674805 C-0.13114685 15.7886705 -0.13289917 16.91059296 -0.13470459 18.06651306 C-0.13912768 21.79826375 -0.13618252 25.52996753 -0.1328125 29.26171875 C-0.13348565 31.84666452 -0.13445576 34.43161023 -0.13571167 37.01655579 C-0.13718945 42.44650937 -0.13512719 47.87644519 -0.13037109 53.30639648 C-0.12494206 59.57687209 -0.12668103 65.84731512 -0.1321975 72.11778992 C-0.13729205 78.1507186 -0.1367398 84.1836314 -0.13381577 90.21656227 C-0.13314852 92.78219418 -0.13396787 95.34782693 -0.13629532 97.91345787 C-0.13883655 101.50442065 -0.13495975 105.09532115 -0.12939453 108.6862793 C-0.13141876 109.74782227 -0.13344299 110.80936523 -0.13552856 111.90307617 C-0.12172362 116.71476409 -0.01465998 121.270491 1 126 C-1.08784175 124.31572467 -1.92758266 123.43544676 -2.37473011 120.74674129 C-2.37456237 119.8598087 -2.37439463 118.97287611 -2.3742218 118.05906677 C-2.38474327 116.5300473 -2.38474327 116.5300473 -2.39547729 114.97013855 C-2.38783356 113.85262711 -2.38018982 112.73511566 -2.37231445 111.58374023 C-2.37596512 110.4063327 -2.37961578 109.22892517 -2.38337708 108.01583862 C-2.39009984 104.78651092 -2.38336095 101.55755829 -2.37004495 98.32826114 C-2.35873568 94.95126721 -2.36283748 91.57428831 -2.36479187 88.19728088 C-2.36567489 82.52705935 -2.3545918 76.85695736 -2.33618164 71.18676758 C-2.31500363 64.62643353 -2.31150622 58.06627451 -2.3177436 51.5059132 C-2.32343298 45.19957248 -2.31779731 38.89329355 -2.30657005 32.58696175 C-2.30191943 29.90078657 -2.30105219 27.21464911 -2.3031559 24.52847099 C-2.30352505 20.78116558 -2.29094871 17.03413024 -2.2746582 13.28686523 C-2.27713562 12.16732956 -2.27961304 11.04779388 -2.28216553 9.89433289 C-2.27508072 8.8778064 -2.26799591 7.86127991 -2.26069641 6.81394958 C-2.25864354 5.92739402 -2.25659067 5.04083845 -2.25447559 4.12741756 C-2 2 -2 2 0 0 Z " fill="#DAF2FD" transform="translate(70,78)"/>
<path d="M0 0 C3.96 0 7.92 0 12 0 C12 3.63 12 7.26 12 11 C8.04 11 4.08 11 0 11 C0 7.37 0 3.74 0 0 Z " fill="#E0F6FD" transform="translate(86,172)"/>
<path d="M0 0 C19.47 0 38.94 0 59 0 C59.495 1.98 59.495 1.98 60 4 C59 5 59 5 56.63987732 5.12025452 C55.59396927 5.11803391 54.54806122 5.11581329 53.47045898 5.11352539 C52.28931015 5.11344986 51.10816132 5.11337433 49.89122009 5.11329651 C48.6058284 5.10813522 47.32043671 5.10297394 45.99609375 5.09765625 C44.68794205 5.0962413 43.37979034 5.09482635 42.03199768 5.09336853 C38.54837141 5.0895441 35.06478661 5.07971446 31.58117676 5.06866455 C28.02873292 5.05844882 24.47628241 5.05387056 20.92382812 5.04882812 C13.94920168 5.03809212 6.97460283 5.0210166 0 5 C0 4.67 0 4.34 0 4 C28.71 3.505 28.71 3.505 58 3 C58 2.34 58 1.68 58 1 C38.86 1 19.72 1 0 1 C0 0.67 0 0.34 0 0 Z " fill="#7EC3E1" transform="translate(113,136)"/>
<path d="M0 0 C0.495 1.485 0.495 1.485 1 3 C-18.47 3 -37.94 3 -58 3 C-58 2.34 -58 1.68 -58 1 C-50.70428012 0.85676832 -43.40854289 0.71444703 -36.11279297 0.57275391 C-33.6316691 0.52446031 -31.15054926 0.47595953 -28.66943359 0.42724609 C-25.09994532 0.35720007 -21.53044317 0.287903 -17.9609375 0.21875 C-16.30123428 0.18593933 -16.30123428 0.18593933 -14.60800171 0.15246582 C-9.7379488 0.05877017 -4.87124805 -0.02956751 0 0 Z " fill="#C8EBF4" transform="translate(171,99)"/>
<path d="M0 0 C14.43802521 -0.07001958 28.87602417 -0.12275417 43.31418419 -0.15543652 C50.01778202 -0.17091852 56.72127448 -0.19203328 63.42480469 -0.22631836 C69.88922881 -0.25881885 76.35354326 -0.27683337 82.81804276 -0.28463173 C85.28931023 -0.290192 87.76057143 -0.30104919 90.23179245 -0.31719017 C93.68249422 -0.33884044 97.13273778 -0.3419721 100.58349609 -0.34057617 C101.61423752 -0.351362 102.64497894 -0.36214783 103.70695496 -0.3732605 C104.64367538 -0.36913651 105.58039581 -0.36501251 106.54550171 -0.36076355 C107.36221029 -0.36352893 108.17891888 -0.36629431 109.02037621 -0.36914349 C109.67365206 -0.24732614 110.32692791 -0.12550879 111 0 C111.99 1.485 111.99 1.485 113 3 C112.43605152 2.83748025 111.87210304 2.6749605 111.29106522 2.50751591 C108.89500876 1.97674238 106.79509559 1.87694624 104.34295654 1.87974548 C102.94637314 1.87768349 102.94637314 1.87768349 101.52157593 1.87557983 C100.00027573 1.88097275 100.00027573 1.88097275 98.44824219 1.88647461 C97.37476532 1.88632858 96.30128845 1.88618256 95.19528198 1.8860321 C91.64579246 1.88672897 88.09635536 1.89451086 84.546875 1.90234375 C82.08636504 1.90420873 79.6258547 1.90563226 77.16534424 1.90663147 C70.68805924 1.91045033 64.21079665 1.92027528 57.73352051 1.93133545 C51.12443342 1.9415631 44.51534272 1.946132 37.90625 1.95117188 C24.93749044 1.96189808 11.96874641 1.97877485 -1 2 C-0.67 1.34 -0.34 0.68 0 0 Z " fill="#E5FEFE" transform="translate(72,76)"/>
<path d="M0 0 C0.66 0 1.32 0 2 0 C2.05399736 1.45792884 2.09279177 2.91642712 2.125 4.375 C2.14820312 5.18710938 2.17140625 5.99921875 2.1953125 6.8359375 C2 9 2 9 0 11 C-2.54229159 11.17201285 -4.96149996 11.23257617 -7.5 11.1875 C-8.18964844 11.18685547 -8.87929687 11.18621094 -9.58984375 11.18554688 C-14.71888951 11.14055525 -14.71888951 11.14055525 -17 10 C-17 7.03 -17 4.06 -17 1 C-15 2.3125 -15 2.3125 -13 4 C-13 4.99 -13 5.98 -13 7 C-7.555 6.505 -7.555 6.505 -2 6 C-1.67 4.35 -1.34 2.7 -1 1 C-0.67 0.67 -0.34 0.34 0 0 Z " fill="#45A4CF" transform="translate(100,110)"/>
<path d="M0 0 C2.25 0.25 2.25 0.25 4 1 C2.46371994 4.8319713 0.10154038 6.89824075 -3 9.5625 C-5.81722892 11.99072202 -7.92978755 13.89468133 -10 17 C-13.81684226 15.44499019 -16.19195732 12.96404505 -19 10 C-18.67 9.01 -18.34 8.02 -18 7 C-15.83125748 7.50603992 -14.00032373 7.99983813 -12 9 C-12 9.66 -12 10.32 -12 11 C-10.74839762 9.91851833 -9.49879619 8.83472078 -8.25 7.75 C-7.5178125 7.11578125 -6.785625 6.4815625 -6.03125 5.828125 C-3.88802083 3.96354167 -3.88802083 3.96354167 -1.75 1.5 C-1.1725 1.005 -0.595 0.51 0 0 Z " fill="#44ACCF" transform="translate(103,97)"/>
<path d="M0 0 C2.01219907 0.00314142 4.02289568 -0.02030412 6.03491211 -0.0456543 C15.08046547 -0.05009492 23.0972392 1.06364842 31.84545898 3.31567383 C31.84545898 3.64567383 31.84545898 3.97567383 31.84545898 4.31567383 C26.69492877 4.40603401 21.94702042 4.13556763 16.84545898 3.31567383 C7.26993381 1.8550005 -7.26135547 -0.13091895 -16.15454102 4.31567383 C-18.82690311 4.44982855 -21.4770459 4.35885923 -24.15454102 4.31567383 C-18.50813783 -1.33072936 -7.38754156 -0.02401729 0 0 Z " fill="#3BB6D1" transform="translate(126.154541015625,44.684326171875)"/>
<path d="M0 0 C0.66 0.33 1.32 0.66 2 1 C2.05386629 3.12472576 2.09273071 5.24983652 2.125 7.375 C2.14820313 8.55835938 2.17140625 9.74171875 2.1953125 10.9609375 C2 14 2 14 0 16 C-2.40444946 16.24050903 -2.40444946 16.24050903 -5.45947266 16.22705078 C-6.60050446 16.22689972 -7.74153625 16.22674866 -8.91714478 16.22659302 C-10.77186905 16.21110916 -10.77186905 16.21110916 -12.6640625 16.1953125 C-13.92640717 16.1924826 -15.18875183 16.18965271 -16.48934937 16.18673706 C-19.84646944 16.17742131 -23.20331912 16.15944835 -26.56036377 16.1373291 C-29.98553122 16.1168755 -33.41072659 16.1077364 -36.8359375 16.09765625 C-43.55736671 16.07556458 -50.27866773 16.04206377 -57 16 C-57 15.67 -57 15.34 -57 15 C-56.34489441 14.98969254 -55.68978882 14.97938507 -55.01483154 14.96876526 C-48.20168161 14.86065576 -41.38866273 14.74606117 -34.57568359 14.62768555 C-32.03241719 14.58435101 -29.48912198 14.54267487 -26.94580078 14.50268555 C-23.29190381 14.44494742 -19.63815169 14.38126275 -15.984375 14.31640625 C-14.84570984 14.29969376 -13.70704468 14.28298126 -12.53387451 14.26576233 C-10.94267792 14.2358445 -10.94267792 14.2358445 -9.31933594 14.20532227 C-8.38667908 14.18977798 -7.45402222 14.1742337 -6.49310303 14.15821838 C-3.71811719 14.05745762 -3.71811719 14.05745762 0 13 C0 8.71 0 4.42 0 0 Z " fill="#84C6E9" transform="translate(171,170)"/>
<path d="M0 0 C0.33 0 0.66 0 1 0 C1.22786458 2.05078125 1.45572917 4.1015625 1.68359375 6.15234375 C1.81886614 8.01140229 1.81886614 8.01140229 3 9 C3.04063832 10.66617115 3.042721 12.33388095 3 14 C-1.3177458 13.49202991 -5.03302114 12.80317221 -9 11 C-9 10.34 -9 9.68 -9 9 C-15.93 8.67 -22.86 8.34 -30 8 C-30 7.67 -30 7.34 -30 7 C-27.95928485 6.66089006 -25.91737379 6.32897296 -23.875 6 C-22.73804688 5.814375 -21.60109375 5.62875 -20.4296875 5.4375 C-11.98158262 4.35983742 -11.98158262 4.35983742 -8.125 6.875 C-7.42375 7.57625 -6.7225 8.2775 -6 9 C-6 9.66 -6 10.32 -6 11 C-4.02 11 -2.04 11 0 11 C0 7.37 0 3.74 0 0 Z " fill="#3185AB" transform="translate(225,174)"/>
<path d="M0 0 C0.33 0 0.66 0 1 0 C1.90271424 16.34915794 1.90271424 16.34915794 -2.61328125 23.49609375 C-4 25 -4 25 -7 26 C-8.20882096 28.00016466 -8.20882096 28.00016466 -9 30 C-9.66 30 -10.32 30 -11 30 C-10.690625 31.010625 -10.38125 32.02125 -10.0625 33.0625 C-9.02352081 36.6731369 -8.45688819 40.26874647 -8 44 C-10.64 44 -13.28 44 -16 44 C-16.33 43.34 -16.66 42.68 -17 42 C-14.69 42.33 -12.38 42.66 -10 43 C-10.33 42.175 -10.66 41.35 -11 40.5 C-12.20008461 36.29970387 -12.35705363 33.35605434 -12 29 C-10.73828125 27.55859375 -10.73828125 27.55859375 -9 26 C-1.19500916 17.55724727 0.24081932 11.15294466 0 0 Z " fill="#55A47E" transform="translate(238,145)"/>
<path d="M0 0 C5.94 0 11.88 0 18 0 C17.67 0.99 17.34 1.98 17 3 C16.77674186 5.05893621 16.59294241 7.12233653 16.4375 9.1875 C16.35371094 10.27417969 16.26992187 11.36085937 16.18359375 12.48046875 C16.09271484 13.72763672 16.09271484 13.72763672 16 15 C15.67 15 15.34 15 15 15 C15 11.04 15 7.08 15 3 C10.71 3 6.42 3 2 3 C2 7.95 2 12.9 2 18 C1.34 18 0.68 18 0 18 C0 12.06 0 6.12 0 0 Z " fill="#419ED0" transform="translate(83,136)"/>
<path d="M0 0 C2.31 0 4.62 0 7 0 C7 3.3 7 6.6 7 10 C4.69 10.33 2.38 10.66 0 11 C0 7.37 0 3.74 0 0 Z " fill="#6CAB4D" transform="translate(189,112)"/>
<path d="M0 0 C3.96 0 7.92 0 12 0 C12 3.96 12 7.92 12 12 C8.04 12 4.08 12 0 12 C0 8.04 0 4.08 0 0 Z M2 2 C2 4.64 2 7.28 2 10 C4.97 10 7.94 10 11 10 C11 7.36 11 4.72 11 2 C8.03 2 5.06 2 2 2 Z " fill="#BDE7FA" transform="translate(86,139)"/>
<path d="M0 0 C10.23 0 20.46 0 31 0 C31.33 1.32 31.66 2.64 32 4 C31 5 31 5 28.04077148 5.11352539 C26.74727783 5.10828857 25.45378418 5.10305176 24.12109375 5.09765625 C23.09110008 5.09553383 23.09110008 5.09553383 22.04029846 5.09336853 C19.83932199 5.08775479 17.63844591 5.07520007 15.4375 5.0625 C13.94856917 5.05748676 12.45963676 5.05292355 10.97070312 5.04882812 C7.31376925 5.03778093 3.65689442 5.02050713 0 5 C0 4.67 0 4.34 0 4 C14.85 3.505 14.85 3.505 30 3 C30 2.34 30 1.68 30 1 C20.1 1 10.2 1 0 1 C0 0.67 0 0.34 0 0 Z " fill="#6FB9DB" transform="translate(113,150)"/>
<path d="M0 0 C11.88 0 23.76 0 36 0 C31.86269841 4.13730159 24.22364013 3.10293574 18.6875 3.1875 C12.25956736 3.15529593 6.25397189 2.4562263 0 1 C0 0.67 0 0.34 0 0 Z " fill="#3F90CB" transform="translate(113,245)"/>
<path d="M0 0 C0.66 0 1.32 0 2 0 C2 0.66 2 1.32 2 2 C2.99 2 3.98 2 5 2 C5 2.66 5 3.32 5 4 C6.423125 3.9690625 6.423125 3.9690625 7.875 3.9375 C11 4 11 4 13 5 C14.59262066 5.15175549 16.19064856 5.24900325 17.7890625 5.31640625 C18.73007813 5.35830078 19.67109375 5.40019531 20.640625 5.44335938 C21.62546875 5.48267578 22.6103125 5.52199219 23.625 5.5625 C24.61757812 5.60568359 25.61015625 5.64886719 26.6328125 5.69335938 C29.08839838 5.79961069 31.54408703 5.90164964 34 6 C34 6.33 34 6.66 34 7 C32.39658445 7.33692785 30.79223445 7.66941093 29.1875 8 C28.29417969 8.185625 27.40085938 8.37125 26.48046875 8.5625 C18.76232323 9.92381071 10.36241164 7.29052807 3 5 C3 4.34 3 3.68 3 3 C1.68 3 0.36 3 -1 3 C-0.67 2.01 -0.34 1.02 0 0 Z " fill="#5DA477" transform="translate(182,205)"/>
<path d="M0 0 C0 0.66 0 1.32 0 2 C-1.60882327 3.0585155 -3.26485895 4.04551622 -4.9375 5 C-11.12835482 8.80238309 -15.36843208 13.48071489 -20 19 C-20.98669798 20.01312739 -21.98107772 21.01928731 -23 22 C-23.99 21.67 -24.98 21.34 -26 21 C-24.33333333 19.33333333 -22.66666667 17.66666667 -21 16 C-20.236875 15.21625 -19.47375 14.4325 -18.6875 13.625 C-4.73809524 0 -4.73809524 0 0 0 Z " fill="#49B0D3" transform="translate(78,59)"/>
<path d="M0 0 C3.81105426 5.71658139 2.74325686 14.46849759 1.64697266 21.15234375 C-0.88821983 33.24023155 -0.88821983 33.24023155 -5 38 C-4.5912359 35.07052395 -4.20616501 32.46387127 -3 29.75 C-1.72660778 26.24817139 -1.51794662 22.90755905 -1.24609375 19.20703125 C-1 17 -1 17 0 15 C0.0716735 12.44842345 0.09308442 9.92527029 0.0625 7.375 C0.05798828 6.66859375 0.05347656 5.9621875 0.04882812 5.234375 C0.03703875 3.48954725 0.01910324 1.744763 0 0 Z " fill="#9EC777" transform="translate(258,148)"/>
<path d="M0 0 C1.98 0 3.96 0 6 0 C6 0.66 6 1.32 6 2 C6.66 2 7.32 2 8 2 C8.33 2.99 8.66 3.98 9 5 C8.34 5 7.68 5 7 5 C7 4.34 7 3.68 7 3 C4.03 2.505 4.03 2.505 1 2 C0.67 2.66 0.34 3.32 0 4 C0.61875 4.2475 1.2375 4.495 1.875 4.75 C4.35068687 6.20628639 4.95125002 7.37812506 6 10 C4.125 10.625 4.125 10.625 2 11 C1.34 10.34 0.68 9.68 0 9 C-0.33 11.31 -0.66 13.62 -1 16 C-1.33 16 -1.66 16 -2 16 C-2 13.03 -2 10.06 -2 7 C-1.01 7 -0.02 7 1 7 C1 6.34 1 5.68 1 5 C0.34 5 -0.32 5 -1 5 C-0.67 3.35 -0.34 1.7 0 0 Z " fill="#C7F0F9" transform="translate(84,103)"/>
<path d="M0 0 C-8.05483385 3.89974665 -14.81514565 7.14281598 -24 6 C-24.33 4.68 -24.66 3.36 -25 2 C-24.01 1.67 -23.02 1.34 -22 1 C-22 1.99 -22 2.98 -22 4 C-20.52031676 3.85950482 -19.04125484 3.71245174 -17.5625 3.5625 C-16.73878906 3.48128906 -15.91507813 3.40007812 -15.06640625 3.31640625 C-13.01337975 3.21069185 -13.01337975 3.21069185 -12 2 C-10.33382885 1.95936168 -8.66611905 1.957279 -7 2 C-7 1.34 -7 0.68 -7 0 C-3.86650268 -1.04449911 -3.01031744 -0.93423645 0 0 Z " fill="#3980C8" transform="translate(87,259)"/>
<path d="M0 0 C2.16874252 0.50603992 3.99967627 0.99983813 6 2 C6 2.66 6 3.32 6 4 C7.32 4 8.64 4 10 4 C9.67 5.65 9.34 7.3 9 9 C7.68 9 6.36 9 5 9 C2.875 6.5625 2.875 6.5625 1 4 C0.34 3.67 -0.32 3.34 -1 3 C-0.67 2.01 -0.34 1.02 0 0 Z " fill="#48A8CE" transform="translate(85,104)"/>
<path d="M0 0 C0.598125 0.20625 1.19625 0.4125 1.8125 0.625 C2.19468767 2.28114657 2.52645102 3.94957024 2.8125 5.625 C1.8125 6.625 1.8125 6.625 -1.25 6.6875 C-2.219375 6.666875 -3.18875 6.64625 -4.1875 6.625 C-4.5175 4.975 -4.8475 3.325 -5.1875 1.625 C-2.1875 -0.375 -2.1875 -0.375 0 0 Z " fill="#C3E6F7" transform="translate(197.1875,148.375)"/>
<path d="M0 0 C3.60575128 3.24517615 5.68587352 6.01467656 6.20507812 10.94897461 C6.30417938 13.17799442 6.3220184 15.39388656 6.3125 17.625 C6.32861328 18.388125 6.34472656 19.15125 6.36132812 19.9375 C6.36621833 25.51233651 6.36621833 25.51233651 4.48046875 28.0234375 C3.99191406 28.34570312 3.50335938 28.66796875 3 29 C2.957279 27.33388095 2.95936168 25.66617115 3 24 C3.33 23.67 3.66 23.34 4 23 C4.59774994 17.10296695 4.07001022 12.19317235 1.734375 6.76171875 C0.81504413 4.55630268 0.36795073 2.35488467 0 0 Z " fill="#3AB8B9" transform="translate(232,134)"/>
<path d="M0 0 C0.33 0 0.66 0 1 0 C1.57433809 19.71894094 1.57433809 19.71894094 -2 27 C-2.99 27.33 -3.98 27.66 -5 28 C-4.79721436 27.46705322 -4.59442871 26.93410645 -4.38549805 26.38500977 C-2.29333962 20.56688277 -1.33207994 15.0818903 -0.8125 8.9375 C-0.73064453 8.07189453 -0.64878906 7.20628906 -0.56445312 6.31445312 C-0.36684448 4.21050226 -0.18204995 2.10535418 0 0 Z " fill="#5797D0" transform="translate(71,229)"/>
<path d="M0 0 C0.38218767 1.65614657 0.71395102 3.32457024 1 5 C0 6 0 6 -2.4375 6.1875 C-5 6 -5 6 -7 4 C-6.75 1.9375 -6.75 1.9375 -6 0 C-3.50907189 -1.24546405 -2.58919267 -0.7767578 0 0 Z " fill="#B7EBFA" transform="translate(212,149)"/>
<path d="M0 0 C11.11847612 -0.49112287 19.55011598 -0.55565079 28.5625 6.75 C29.366875 7.4925 30.17125 8.235 31 9 C27.08329397 9 25.38851968 7.44485775 22.23046875 5.2890625 C17.2007941 2.38224528 12.36420269 1.69986053 6.625 1.375 C5.37976563 1.30023438 4.13453125 1.22546875 2.8515625 1.1484375 C1.44003906 1.07496094 1.44003906 1.07496094 0 1 C0 0.67 0 0.34 0 0 Z " fill="#3CBBB3" transform="translate(198,122)"/>
<path d="M0 0 C1.67542976 0.28604898 3.34385343 0.61781233 5 1 C5.33 2.65 5.66 4.3 6 6 C4.0085944 6.38133299 2.00720923 6.71325582 0 7 C-1 6 -1 6 -1.125 3.5 C-1 1 -1 1 0 0 Z " fill="#E9FEFE" transform="translate(220,148)"/>
<path d="M0 0 C0.33 0 0.66 0 1 0 C1.22786458 2.05078125 1.45572917 4.1015625 1.68359375 6.15234375 C1.81886614 8.01140229 1.81886614 8.01140229 3 9 C3.04063832 10.66617115 3.042721 12.33388095 3 14 C-1.3177458 13.49202991 -5.03302114 12.80317221 -9 11 C-5.93109813 9.46554906 -3.29905734 10.45015711 0 11 C0 7.37 0 3.74 0 0 Z " fill="#3A93A8" transform="translate(225,174)"/>
<path d="M0 0 C0.66 0.33 1.32 0.66 2 1 C1.01 2.485 1.01 2.485 0 4 C0.66 4.33 1.32 4.66 2 5 C2 8.3 2 11.6 2 15 C1.67 15 1.34 15 1 15 C1 12.03 1 9.06 1 6 C0.05125 6.495 -0.8975 6.99 -1.875 7.5 C-5 9 -5 9 -7 9 C-5.44499019 5.18315774 -2.96404505 2.80804268 0 0 Z " fill="#D4F4FB" transform="translate(101,104)"/>
<path d="M0 0 C0.33 0.66 0.66 1.32 1 2 C1.66 2 2.32 2 3 2 C2.835 2.66 2.67 3.32 2.5 4 C1.88576698 7.68539813 1.93135211 11.27928454 2 15 C2.08207619 19.44852959 2.08701791 23.65192835 1 28 C0.67 28 0.34 28 0 28 C0 18.76 0 9.52 0 0 Z " fill="#2FAFC6" transform="translate(189,82)"/>
<path d="M0 0 C0.33 0 0.66 0 1 0 C1.95744681 17.34042553 1.95744681 17.34042553 -4 25 C-4.99 25 -5.98 25 -7 25 C-6.34 24.34 -5.68 23.68 -5 23 C-3.98034573 20.67518826 -2.97940398 18.34205301 -2 16 C-1.67 15.67 -1.34 15.34 -1 15 C-0.76346477 12.47403741 -0.57826308 9.96892793 -0.4375 7.4375 C-0.37272461 6.37112305 -0.37272461 6.37112305 -0.30664062 5.28320312 C-0.20028223 3.52238088 -0.09961154 1.7612168 0 0 Z " fill="#5EB378" transform="translate(238,145)"/>
<path d="M0 0 C0.598125 0.309375 1.19625 0.61875 1.8125 0.9375 C4.08956772 2.10209704 4.08956772 2.10209704 7 3 C7 3.66 7 4.32 7 5 C7.66 5 8.32 5 9 5 C13 11.625 13 11.625 13 15 C12.01 14.67 11.02 14.34 10 14 C9.33658 12.308279 8.67496963 10.61579876 8.02734375 8.91796875 C6.43873204 5.95215754 4.05379245 4.19900285 1.42578125 2.1640625 C0.95527344 1.77992188 0.48476562 1.39578125 0 1 C0 0.67 0 0.34 0 0 Z " fill="#7BC66F" transform="translate(226,128)"/>
<path d="M0 0 C1.32 0.66 2.64 1.32 4 2 C3.319375 2.37125 2.63875 2.7425 1.9375 3.125 C-1.15698588 5.10020375 -3.74283906 7.32662273 -6.44921875 9.79296875 C-8 11 -8 11 -10 11 C-9.67 10.01 -9.34 9.02 -9 8 C-8.34 8 -7.68 8 -7 8 C-6.67 7.01 -6.34 6.02 -6 5 C-4.12382302 3.15500602 -2.07262391 1.6316401 0 0 Z " fill="#4489CC" transform="translate(103,243)"/>
<path d="M0 0 C0.66 0.33 1.32 0.66 2 1 C2.02685938 3.14576637 2.04633088 5.29162645 2.0625 7.4375 C2.07410156 8.63246094 2.08570313 9.82742187 2.09765625 11.05859375 C2 14 2 14 1 15 C-0.66617115 15.04063832 -2.33388095 15.042721 -4 15 C-2.68 14.34 -1.36 13.68 0 13 C0 8.71 0 4.42 0 0 Z " fill="#60B7D1" transform="translate(171,170)"/>
<path d="M0 0 C0 0.33 0 0.66 0 1 C-0.57032959 1.05534912 -1.14065918 1.11069824 -1.72827148 1.16772461 C-4.29848753 1.41973743 -6.86797631 1.67852728 -9.4375 1.9375 C-10.33533203 2.02451172 -11.23316406 2.11152344 -12.15820312 2.20117188 C-13.43920898 2.33168945 -13.43920898 2.33168945 -14.74609375 2.46484375 C-15.93223267 2.58267212 -15.93223267 2.58267212 -17.14233398 2.70288086 C-19.01103348 2.81551499 -19.01103348 2.81551499 -20 4 C-21.66617115 4.04063832 -23.33388095 4.042721 -25 4 C-23.38623548 2.07688765 -22.41012064 1.1019465 -19.94140625 0.48828125 C-13.28623072 -0.00348049 -6.67255166 -0.10318379 0 0 Z " fill="#39AFA8" transform="translate(214,108)"/>
<path d="M0 0 C0.66 0 1.32 0 2 0 C2 2.97 2 5.94 2 9 C1.01 9.495 1.01 9.495 0 10 C-0.33 9.01 -0.66 8.02 -1 7 C-3.01508358 6.26676204 -3.01508358 6.26676204 -5 6 C-4.01 6 -3.02 6 -2 6 C-1.855625 5.195625 -1.71125 4.39125 -1.5625 3.5625 C-1 1 -1 1 0 0 Z " fill="#69B6D4" transform="translate(100,110)"/>
<path d="M0 0 C0 0.33 0 0.66 0 1 C-6.50422293 3.00865708 -12.1781317 4.38614349 -19 4 C-14.31184445 -0.68815555 -6.24859684 -0.2272217 0 0 Z " fill="#51B9D4" transform="translate(121,45)"/>
<path d="M0 0 C0.66 0 1.32 0 2 0 C2 0.66 2 1.32 2 2 C2.99 2 3.98 2 5 2 C5 2.66 5 3.32 5 4 C6.3303125 3.938125 6.3303125 3.938125 7.6875 3.875 C10.97277013 3.99897246 13.05449295 4.61387904 16 6 C16 6.33 16 6.66 16 7 C11.18061476 7.23509196 7.53701494 6.45184478 3 5 C3 4.34 3 3.68 3 3 C1.68 3 0.36 3 -1 3 C-0.67 2.01 -0.34 1.02 0 0 Z " fill="#4C996E" transform="translate(182,205)"/>
<path d="M0 0 C4.33491809 0.35532116 6.94156883 1.41653371 10.8125 3.3125 C10.4825 4.3025 10.1525 5.2925 9.8125 6.3125 C9.19375 5.838125 8.575 5.36375 7.9375 4.875 C3.65144324 2.73197162 -0.45350709 2.57907436 -5.1875 2.3125 C-3.1875 0.3125 -3.1875 0.3125 0 0 Z " fill="#3DBBD4" transform="translate(175.1875,72.6875)"/>
<path d="M0 0 C1.32 0 2.64 0 4 0 C4 0.66 4 1.32 4 2 C5.2684375 1.938125 5.2684375 1.938125 6.5625 1.875 C10.42213269 2.01535028 13.33688013 2.82780164 17 4 C17 4.33 17 4.66 17 5 C10.11509775 5.57374185 5.97332123 4.4753869 0 1 C0 0.67 0 0.34 0 0 Z " fill="#2B92AA" transform="translate(181,208)"/>
<path d="M0 0 C3 2 3 2 4 5 C4.06740865 6.56118428 4.08514456 8.1250252 4.0625 9.6875 C4.05347656 10.49574219 4.04445313 11.30398437 4.03515625 12.13671875 C4.02355469 12.75160156 4.01195312 13.36648437 4 14 C1.90284215 10.85426323 1.47995441 8.98543749 0.875 5.3125 C0.70742188 4.31863281 0.53984375 3.32476562 0.3671875 2.30078125 C0.24601562 1.54152344 0.12484375 0.78226563 0 0 Z " fill="#4B95CC" transform="translate(29,164)"/>
<path d="M0 0 C0.66 0.33 1.32 0.66 2 1 C0.02 3.31 -1.96 5.62 -4 8 C-4.99 7.67 -5.98 7.34 -7 7 C-4.66666667 4.66666667 -2.33333333 2.33333333 0 0 Z " fill="#38A6D1" transform="translate(59,73)"/>
<path d="M0 0 C0.66 0 1.32 0 2 0 C2 1.32 2 2.64 2 4 C4.64 4 7.28 4 10 4 C10 4.33 10 4.66 10 5 C6.7 5 3.4 5 0 5 C-0.33 3.68 -0.66 2.36 -1 1 C-0.67 0.67 -0.34 0.34 0 0 Z " fill="#5291C9" transform="translate(63,260)"/>
<path d="M0 0 C0.99 0.33 1.98 0.66 3 1 C3 2.32 3 3.64 3 5 C1.35 5 -0.3 5 -2 5 C-1.125 1.125 -1.125 1.125 0 0 Z " fill="#EFFCFE" transform="translate(196,150)"/>
<path d="M0 0 C1.98 0.495 1.98 0.495 4 1 C4.33 2.32 4.66 3.64 5 5 C2.83125748 4.49396008 1.00032373 4.00016187 -1 3 C-0.67 2.01 -0.34 1.02 0 0 Z " fill="#289AB9" transform="translate(85,104)"/>
<path d="M0 0 C0.66 0 1.32 0 2 0 C2.99 2.64 3.98 5.28 5 8 C4.34 8.66 3.68 9.32 3 10 C0.96564469 6.27034861 0 4.33094958 0 0 Z " fill="#3784C6" transform="translate(38,188)"/>
<path d="M0 0 C1.32 0 2.64 0 4 0 C4 1.65 4 3.3 4 5 C2.68 5 1.36 5 0 5 C0 3.35 0 1.7 0 0 Z " fill="#E9FDFE" transform="translate(207,150)"/>
<path d="M0 0 C1.67542976 0.28604898 3.34385343 0.61781233 5 1 C5.33 2.65 5.66 4.3 6 6 C5.34 5.01 4.68 4.02 4 3 C3.01 3 2.02 3 1 3 C0.34 3.99 -0.32 4.98 -1 6 C-1.042721 4.33388095 -1.04063832 2.66617115 -1 1 C-0.67 0.67 -0.34 0.34 0 0 Z " fill="#B8EDF8" transform="translate(220,148)"/>
<path d="M0 0 C3.8665284 3.222107 4.88059018 6.14922412 6 11 C5.01 10.67 4.02 10.34 3 10 C1.25327015 6.5065403 0 3.93154432 0 0 Z " fill="#4AC1AB" transform="translate(232,134)"/>
<path d="M0 0 C0.33 0 0.66 0 1 0 C1.125 2.375 1.125 2.375 1 5 C0.34 5.66 -0.32 6.32 -1 7 C-1.99 7 -2.98 7 -4 7 C-4.33 7.66 -4.66 8.32 -5 9 C-5.33 7.68 -5.66 6.36 -6 5 C-4.35 4.67 -2.7 4.34 -1 4 C-0.67 2.68 -0.34 1.36 0 0 Z " fill="#4799CC" transform="translate(200,150)"/>
<path d="M0 0 C0 0.99 0 1.98 0 3 C-3.3 2.34 -6.6 1.68 -10 1 C-10 0.67 -10 0.34 -10 0 C-2.25 -1.125 -2.25 -1.125 0 0 Z " fill="#52C1B7" transform="translate(225,109)"/>
<path d="M0 0 C1.32 0.33 2.64 0.66 4 1 C1.69 2.65 -0.62 4.3 -3 6 C-3.66 5.67 -4.32 5.34 -5 5 C-2.75 2.4375 -2.75 2.4375 0 0 Z " fill="#D6F1F2" transform="translate(206,213)"/>
<path d="M0 0 C0.33 0 0.66 0 1 0 C1.33 4.29 1.66 8.58 2 13 C0.68 12.34 -0.64 11.68 -2 11 C-1.34 11 -0.68 11 0 11 C0 7.37 0 3.74 0 0 Z " fill="#3999BF" transform="translate(225,174)"/>
<path d="M0 0 C0.33 0 0.66 0 1 0 C1.36923077 7.50769231 1.36923077 7.50769231 -0.5 10 C-0.995 10.33 -1.49 10.66 -2 11 C-1.125 3.375 -1.125 3.375 0 0 Z " fill="#5FADD7" transform="translate(32,114)"/>
</svg>
